<?xml version="1.0" encoding="utf-8"?>
<!-- Generator: Adobe Illustrator 24.1.0, SVG Export Plug-In . SVG Version: 6.00 Build 0)  -->
<svg version="1.1" id="Capa_1" xmlns="http://www.w3.org/2000/svg" xmlns:xlink="http://www.w3.org/1999/xlink" x="0px" y="0px"
	 viewBox="0 0 569 199" style="enable-background:new 0 0 569 199;" xml:space="preserve">
<style type="text/css">
	.st0{fill:#139AD6;}
	.st1{fill:#263B80;}
	.st2{fill:#232C65;}
</style>
<path class="st0" d="M423.6,73.2h-27.2c-1.6,0-3.2,1.6-4,3.2l-11.2,70.4c0,1.6,0.8,2.4,2.4,2.4H398c1.6,0,2.4-0.8,2.4-2.4l3.2-20
	c0-1.6,1.6-3.2,4-3.2h8.8c18.4,0,28.8-8.8,31.2-26.4c1.6-7.2,0-13.6-3.2-17.6C439.6,75.6,432.4,73.2,423.6,73.2 M426.8,99.6
	c-1.6,9.6-8.8,9.6-16,9.6H406l3.2-18.4c0-0.8,0.8-1.6,2.4-1.6h1.6c4.8,0,9.6,0,12,3.2C426.8,93.2,426.8,95.6,426.8,99.6"/>
<g>
	<path class="st1" d="M227.6,73.2h-27.2c-1.6,0-3.2,1.6-4,3.2l-11.2,70.4c0,1.6,0.8,2.4,2.4,2.4h12.8c1.6,0,3.2-1.6,4-3.2l3.2-19.2
		c0-1.6,1.6-3.2,4-3.2h8.8c18.4,0,28.8-8.8,31.2-26.4c1.6-7.2,0-13.6-3.2-17.6C243.6,75.6,237.2,73.2,227.6,73.2 M230.8,99.6
		c-1.6,9.6-8.8,9.6-16,9.6h-4l3.2-18.4c0-0.8,0.8-1.6,2.4-1.6h1.6c4.8,0,9.6,0,12,3.2C230.8,93.2,231.6,95.6,230.8,99.6"/>
	<path class="st1" d="M310,98.8h-12.8c-0.8,0-2.4,0.8-2.4,1.6l-0.8,4l-0.8-1.6c-3.2-4-8.8-5.6-15.2-5.6c-14.4,0-27.2,11.2-29.6,26.4
		c-1.6,8,0.8,15.2,4.8,20s9.6,6.4,16.8,6.4c12,0,18.4-7.2,18.4-7.2l-0.8,4c0,1.6,0.8,2.4,2.4,2.4h12c1.6,0,3.2-1.6,4-3.2l7.2-44.8
		C312.4,100.4,310.8,98.8,310,98.8 M291.6,124.4c-1.6,7.2-7.2,12.8-15.2,12.8c-4,0-7.2-1.6-8.8-3.2c-1.6-2.4-2.4-5.6-2.4-9.6
		c0.8-7.2,7.2-12.8,14.4-12.8c4,0,6.4,1.6,8.8,3.2C290.8,117.2,291.6,121.2,291.6,124.4"/>
</g>
<path class="st0" d="M505.2,98.8h-12.8c-0.8,0-2.4,0.8-2.4,1.6l-0.8,4l-0.8-1.6c-3.2-4-8.8-5.6-15.2-5.6
	c-14.4,0-27.2,11.2-29.6,26.4c-1.6,8,0.8,15.2,4.8,20s9.6,6.4,16.8,6.4c12,0,18.4-7.2,18.4-7.2l-0.8,4c0,1.6,0.8,2.4,2.4,2.4h12
	c1.6,0,3.2-1.6,4-3.2l7.2-44.8C507.6,100.4,506.8,98.8,505.2,98.8 M486.8,124.4c-1.6,7.2-7.2,12.8-15.2,12.8c-4,0-7.2-1.6-8.8-3.2
	c-1.6-2.4-2.4-5.6-2.4-9.6c0.8-7.2,7.2-12.8,14.4-12.8c4,0,6.4,1.6,8.8,3.2C486.8,117.2,487.6,121.2,486.8,124.4"/>
<path class="st1" d="M379.6,98.8H366c-1.6,0-2.4,0.8-3.2,1.6l-17.6,27.2l-8-25.6c-0.8-1.6-1.6-2.4-4-2.4h-12.8
	c-1.6,0-2.4,1.6-2.4,3.2l14.4,42.4l-13.6,19.2c-0.8,1.6,0,4,1.6,4h12.8c1.6,0,2.4-0.8,3.2-1.6l44-63.2
	C382.8,101.2,381.2,98.8,379.6,98.8"/>
<path class="st0" d="M520.4,75.6l-11.2,72c0,1.6,0.8,2.4,2.4,2.4h11.2c1.6,0,3.2-1.6,4-3.2L538,76.4c0-1.6-0.8-2.4-2.4-2.4h-12.8
	C522,73.2,521.2,74,520.4,75.6"/>
<path class="st1" d="M126,49.2c-5.6-6.4-16-9.6-30.4-9.6h-40c-2.4,0-4.8,2.4-5.6,4.8L34,149.2c0,2.4,1.6,4,3.2,4H62l6.4-39.2v1.6
	c0.8-2.4,3.2-4.8,5.6-4.8h12c23.2,0,40.8-9.6,46.4-36c0-0.8,0-1.6,0-2.4c-0.8,0-0.8,0,0,0C133.2,62,131.6,55.6,126,49.2"/>
<path class="st0" d="M131.6,72.4L131.6,72.4c0,0.8,0,1.6,0,2.4c-5.6,27.2-23.2,36-46.4,36h-12c-2.4,0-4.8,2.4-5.6,4.8l-8,48.8
	c0,1.6,0.8,3.2,3.2,3.2h20.8c2.4,0,4.8-1.6,4.8-4v-0.8l4-24.8v-1.6c0-2.4,2.4-4,4.8-4h3.2c20,0,36-8,40-32c1.6-9.6,0.8-18.4-4-24
	C135.6,74.8,134,73.2,131.6,72.4"/>
<path class="st2" d="M126,70c-0.8,0-1.6-0.8-2.4-0.8s-1.6,0-2.4-0.8c-3.2-0.8-6.4-0.8-10.4-0.8H79.6c-0.8,0-1.6,0-2.4,0.8
	c-1.6,0.8-2.4,2.4-2.4,4L68.4,114v1.6c0.8-2.4,3.2-4.8,5.6-4.8h12c23.2,0,40.8-9.6,46.4-36c0-0.8,0-1.6,0.8-2.4
	c-1.6-0.8-2.4-1.6-4-1.6C126.8,70,126.8,70,126,70"/>
</svg>
